<?xml version="1.0" encoding="UTF-8"?>
<svg version="1.1" xmlns="http://www.w3.org/2000/svg" width="1920" height="1920">
<path d="M0 0 C356.4 0 712.8 0 1080 0 C1080 356.4 1080 712.8 1080 1080 C723.6 1080 367.2 1080 0 1080 C0 723.6 0 367.2 0 0 Z " fill="#0000" transform="translate(0,0)"/>
<path d="M0 0 C0.73830728 -0.00523668 1.47661456 -0.01047336 2.23729479 -0.01586872 C4.71225722 -0.03087544 7.18701302 -0.03157401 9.66201782 -0.03224182 C11.43610483 -0.03986282 13.21018853 -0.04829021 14.98426819 -0.0574646 C19.80453475 -0.07942136 24.62473788 -0.08820999 29.44504881 -0.09329104 C32.45627948 -0.09693297 35.46749348 -0.10317216 38.4787178 -0.11029243 C48.98302186 -0.13479022 59.4872765 -0.14783971 69.99160767 -0.15138245 C79.78466994 -0.15501882 89.57741901 -0.18492068 99.37038553 -0.22678703 C107.77729537 -0.26146848 116.1841013 -0.27693051 124.59108222 -0.27762848 C129.61262425 -0.27842197 134.63384725 -0.28719398 139.6553154 -0.31562614 C144.37831295 -0.34177028 149.10072611 -0.3440325 153.82376289 -0.3279705 C155.55637065 -0.32615314 157.28901172 -0.33287265 159.02154732 -0.34878922 C161.38899973 -0.36921137 163.75439995 -0.35872318 166.12182617 -0.34057617 C166.80588229 -0.35377614 167.4899384 -0.36697611 168.19472349 -0.38057607 C173.68796904 -0.28453789 175.95157546 1.54222136 179.68789673 5.27415466 C181.24266362 8.38368846 180.97434109 10.83682227 180.68789673 14.27415466 C178.13957033 19.27642501 177.08350373 20.11591186 171.68789673 22.27415466 C158.81789673 22.27415466 145.94789673 22.27415466 132.68789673 22.27415466 C132.68789673 129.19415466 132.68789673 236.11415466 132.68789673 346.27415466 C175.58789673 346.27415466 218.48789673 346.27415466 262.68789673 346.27415466 C262.68789673 332.41415466 262.68789673 318.55415466 262.68789673 304.27415466 C268.60626408 298.35578732 268.60626408 298.35578732 273.00039673 298.02415466 C277.70508779 298.34311677 280.14385504 299.58296768 283.30426025 303.04455566 C285.01176747 305.79604165 285.06800723 307.47393541 285.07608032 310.69773865 C285.0855368 311.78243942 285.09499329 312.8671402 285.10473633 313.98471069 C285.09562729 315.73480186 285.09562729 315.73480186 285.08633423 317.52024841 C285.08920441 318.72351273 285.09207458 319.92677704 285.09503174 321.16650391 C285.09707307 323.7109372 285.09153848 326.25538616 285.07901001 328.79978943 C285.06297235 332.69329485 285.07885027 336.58575991 285.09805298 340.47923279 C285.09607029 342.95124029 285.09222607 345.42324714 285.08633423 347.89524841 C285.09240692 349.05995163 285.09847961 350.22465485 285.10473633 351.4246521 C285.09527985 352.51250504 285.08582336 353.60035797 285.07608032 354.72117615 C285.07369354 355.67507736 285.07130676 356.62897858 285.06884766 357.61178589 C284.49438731 361.62654255 282.88490003 364.19458596 279.88908762 366.89648771 C277.27359929 368.53345243 275.80886321 368.65169324 272.74310398 368.65726471 C271.24140623 368.67084967 271.24140623 368.67084967 269.70937115 368.68470907 C268.06274728 368.67671718 268.06274728 368.67671718 266.38285828 368.66856384 C265.21507243 368.67465495 264.04728659 368.68074605 262.84411329 368.68702173 C259.60185159 368.70080584 256.35991072 368.70109841 253.11763442 368.69564676 C249.6212951 368.69297962 246.12502095 368.70750235 242.62870789 368.71974182 C235.77882927 368.74081111 228.92903528 368.74533583 222.07912809 368.74355394 C216.51241706 368.74224712 210.94573247 368.74604634 205.37902641 368.753479 C203.77650736 368.75557816 202.1739883 368.75767576 200.57146925 368.75977182 C199.77389204 368.76081535 198.97631482 368.76185888 198.15456861 368.76293403 C183.06549089 368.78184227 167.97646179 368.78078435 152.88737714 368.7739647 C139.07843248 368.76838817 125.26967329 368.78921825 111.46077199 368.82232517 C97.28685966 368.85604388 83.11303623 368.87123282 68.93908304 368.86660814 C60.97942677 368.86436168 53.01994195 368.86963234 45.0603199 368.89450073 C38.2843919 368.91549038 31.50872935 368.91912926 24.73279054 368.90020114 C21.27483549 368.89102879 17.81737569 368.88994504 14.35945892 368.91055679 C10.61248831 368.92863049 6.86684783 368.91608629 3.11991882 368.89561462 C2.0244003 368.90813247 0.92888177 368.92065032 -0.19983429 368.9335475 C-7.54396859 368.84717052 -7.54396859 368.84717052 -11.46410465 365.92281342 C-14.41671925 361.690955 -14.75081494 358.36321002 -14.31210327 353.27415466 C-11.9314261 349.44806635 -10.41738649 348.32679627 -6.31210327 346.27415466 C7.54789673 346.27415466 21.40789673 346.27415466 35.68789673 346.27415466 C35.68789673 239.35415466 35.68789673 132.43415466 35.68789673 22.27415466 C21.82789673 22.27415466 7.96789673 22.27415466 -6.31210327 22.27415466 C-13.3709268 17.56827231 -13.3709268 17.56827231 -14.31210327 14.27415466 C-14.76418875 9.30121437 -14.46946352 6.22085498 -11.31210327 2.27415466 C-7.75043558 -0.13910022 -4.15306074 -0.01456752 0 0 Z " fill="#FABB1A" transform="translate(428.3121032714844,331.72584533691406)"/>
<path d="M0 0 C16.83 0 33.66 0 51 0 C51 106.92 51 213.84 51 324 C34.17 324 17.34 324 0 324 C0 217.08 0 110.16 0 0 Z " fill="#FFFFFF" transform="translate(487,354)"/>
</svg>
